HIERARCHY
ROOT root
{
	OFFSET 0.000000 0.000000 0.000000
	CHANNELS 6 Xposition Yposition Zposition Zrotation Yrotation Xrotation
	JOINT lhip
	{
		OFFSET 0.058581 -0.082280 -0.017664
		CHANNELS 3 Zrotation Yrotation Xrotation
		JOINT lknee
		{
			OFFSET 0.043451 -0.386469 0.008037
			CHANNELS 3 Zrotation Yrotation Xrotation
			JOINT lankle
			{
				OFFSET -0.014790 -0.426874 -0.037428
				CHANNELS 3 Zrotation Yrotation Xrotation
				JOINT ltoe
				{
					OFFSET 0.041054 -0.060286 0.122042
					CHANNELS 3 Zrotation Yrotation Xrotation
					End Site
					{
						OFFSET 0.000000 0.000000 0.000000
					}
				}
			}
		}
	}
	JOINT rhip
	{
		OFFSET -0.060310 -0.090513 -0.013543
		CHANNELS 3 Zrotation Yrotation Xrotation
		JOINT rknee
		{
			OFFSET -0.043257 -0.383688 -0.004843
			CHANNELS 3 Zrotation Yrotation Xrotation
			JOINT rankle
			{
				OFFSET 0.019056 -0.420046 -0.034562
				CHANNELS 3 Zrotation Yrotation Xrotation
				JOINT rtoe
				{
					OFFSET -0.034840 -0.062106 0.130323
					CHANNELS 3 Zrotation Yrotation Xrotation
					End Site
					{
						OFFSET 0.000000 0.000000 0.000000
					}
				}
			}
		}
	}
	JOINT lowerback
	{
		OFFSET 0.004439 0.124404 -0.038385
		CHANNELS 3 Zrotation Yrotation Xrotation
		JOINT upperback
		{
			OFFSET 0.004488 0.137956 0.026820
			CHANNELS 3 Zrotation Yrotation Xrotation
			JOINT chest
			{
				OFFSET -0.002265 0.056032 0.002855
				CHANNELS 3 Zrotation Yrotation Xrotation
				JOINT lowerneck
				{
					OFFSET -0.013390 0.211636 -0.033468
					CHANNELS 3 Zrotation Yrotation Xrotation
					JOINT upperneck
					{
						OFFSET 0.010113 0.088937 0.050410
						CHANNELS 3 Zrotation Yrotation Xrotation
						End Site
						{
							OFFSET 0.000000 0.000000 0.000000
						}
					}
				}
				JOINT lclavicle
				{
					OFFSET 0.071702 0.114000 -0.018898
					CHANNELS 3 Zrotation Yrotation Xrotation
					JOINT lshoulder
					{
						OFFSET 0.122921 0.045205 -0.019046
						CHANNELS 3 Zrotation Yrotation Xrotation
						JOINT lelbow
						{
							OFFSET 0.255332 -0.015649 -0.022946
							CHANNELS 3 Zrotation Yrotation Xrotation
							JOINT lwrist
							{
								OFFSET 0.265709 0.012698 -0.007375
								CHANNELS 3 Zrotation Yrotation Xrotation
								End Site
								{
									OFFSET 0.000000 0.000000 0.000000
								}
							}
						}
					}
				}
				JOINT rclavicle
				{
					OFFSET -0.082954 0.112472 -0.023707
					CHANNELS 3 Zrotation Yrotation Xrotation
					JOINT rshoulder
					{
						OFFSET -0.113228 0.046853 -0.008472
						CHANNELS 3 Zrotation Yrotation Xrotation
						JOINT relbow
						{
							OFFSET -0.260127 -0.014369 -0.031269
							CHANNELS 3 Zrotation Yrotation Xrotation
							JOINT rwrist
							{
								OFFSET -0.269108 0.006794 -0.006027
								CHANNELS 3 Zrotation Yrotation Xrotation
								End Site
								{
									OFFSET 0.000000 0.000000 0.000000
								}
							}
						}
					}
				}
			}
		}
	}
}
MOTION
Frames: 14
Frame Time: 0.033333
-2.738189 -0.344353 0.914772 73.017814 0.728598 101.242783 4.666763 -1.427876 -48.218419 -8.007132 21.272521 44.364937 0.985980 7.827978 -9.019293 0.000000 -0.000000 0.000000 -4.138901 -1.975337 -3.893026 -1.217079 9.770569 51.730765 9.549824 -1.568699 10.640394 0.000000 -0.000000 0.000000 -2.194654 11.372486 18.850282 -1.309147 2.465141 -4.954335 0.631204 4.567457 -0.507244 -4.143760 -2.297823 -13.957614 3.926584 4.115754 -9.574649 -17.514567 11.677079 2.206073 -53.503601 21.882246 10.216377 -115.732073 -71.869212 136.911366 17.489369 -12.503790 -22.662279 16.474957 3.092555 0.226289 64.469601 5.146531 18.716362 -170.722531 83.082457 -155.809171 -13.547980 15.525252 -14.526136 
-2.626289 -0.344589 0.908089 77.998487 0.854430 101.835900 -0.836866 -4.886195 -39.807442 -8.923196 15.785596 43.134653 11.040169 9.094568 -21.924288 0.000000 -0.000000 0.000000 -3.210178 0.899229 -12.325778 -2.381693 2.111749 65.768529 6.483033 -7.788220 6.813214 0.000000 -0.000000 0.000000 -2.142494 6.187065 17.849621 -1.025257 2.445836 -5.704003 0.256665 3.827075 0.914372 -2.224430 -3.103554 -15.614387 3.066244 6.090651 -8.530138 -21.509825 10.934656 0.650572 -53.490980 14.430901 12.878293 -121.042364 -76.197594 142.478063 18.450337 -12.867145 -20.483479 19.799021 0.657150 0.490191 62.415085 0.494633 20.024415 -22.068989 84.985375 -7.890947 -10.821811 16.018076 -9.431803 
-2.518980 -0.343945 0.896551 84.049243 0.304798 102.165985 -4.193480 -7.859762 -32.257806 -10.421112 11.706915 42.879558 13.677732 12.660645 -29.583795 0.000000 -0.000000 0.000000 -4.271770 1.886158 -23.764660 -1.159734 -3.553068 78.650576 4.108934 -11.510897 -1.007557 0.000000 -0.000000 0.000000 -1.937102 1.682054 19.467360 -0.472655 1.171362 -7.337231 -0.435031 2.201785 1.779638 -0.576621 -1.806075 -18.907831 2.195987 6.574451 -6.338734 -26.503969 8.007689 -1.793641 -51.458483 5.150380 16.384509 -135.647996 -81.323101 153.743673 18.641252 -11.611549 -20.698015 23.518661 -1.157258 0.473830 59.365030 -3.683178 21.031497 -16.212139 73.039708 -6.447626 -14.065817 14.970735 -10.399535 
-2.381331 -0.341341 0.888840 91.994806 -0.046073 100.705046 -8.226654 -6.565913 -17.602183 -11.888715 -0.688236 38.745215 13.608031 13.262676 -33.852629 0.000000 -0.000000 0.000000 -6.114479 -0.703767 -39.145173 0.497729 -7.367542 88.114010 3.232061 -14.062136 -9.017211 0.000000 -0.000000 0.000000 -0.742416 -3.349041 23.911982 0.204060 0.595806 -8.209607 -0.293846 -0.680443 1.696187 -1.284769 -0.895532 -23.162940 1.937581 5.707931 -5.358005 -28.241833 2.217247 -3.492799 -52.915170 -7.783523 17.774669 -173.948388 -82.613802 -167.362352 19.265962 -12.584442 -18.700262 25.821393 -3.380348 1.532270 55.055752 -11.390332 18.729990 -27.765954 71.626592 -16.716405 -15.233949 17.506512 -6.360664 
-2.292869 -0.337807 0.887983 95.123622 0.743723 100.329921 -8.391891 -3.345665 -7.600347 -11.488576 -8.319330 33.074335 11.844498 12.904965 -34.093739 0.000000 -0.000000 0.000000 -7.012810 -1.872169 -48.315777 -0.164202 -8.883868 88.797891 4.114843 -13.278292 -12.750892 0.000000 -0.000000 0.000000 0.388886 -6.858954 24.272896 0.278649 1.019725 -9.406646 0.518064 -2.096313 2.716161 -2.412561 -0.716911 -22.440844 1.588791 7.047831 -6.867527 -25.951132 1.890326 -3.753676 -58.006621 -13.486462 17.665052 175.643283 -77.324143 -154.794933 20.688745 -12.409934 -17.506995 22.766386 -6.520972 1.675444 53.633790 -15.591056 17.010895 -23.799337 78.217236 -11.760211 -14.629326 17.825101 -9.344768 
-2.167977 -0.333177 0.894597 98.171383 2.972872 101.023903 -5.098688 -0.937230 4.596497 -9.529424 -17.300037 23.981816 5.818670 11.217412 -27.691429 0.000000 -0.000000 0.000000 -8.272517 -1.898087 -57.672463 -2.170268 -12.147387 82.209043 5.567985 -11.306404 -15.318198 0.000000 -0.000000 0.000000 2.584906 -12.460440 22.535290 0.825371 1.292158 -9.960995 1.452066 -2.668452 2.926661 -3.796900 0.424540 -20.354305 1.639544 9.262242 -7.922300 -22.435454 3.152125 -4.655788 -61.907407 -17.014507 20.398953 174.036644 -65.725349 -155.640474 22.656287 -9.772829 -29.760330 17.579154 -9.934157 2.458228 51.114227 -19.174570 16.401848 12.127638 86.439812 24.630981 -14.324749 18.183174 -12.656991 
-2.038708 -0.328985 0.909201 99.018213 5.112924 102.826770 -1.393485 0.119275 11.787962 -6.874804 -20.379738 18.020729 -4.376123 8.695806 -11.502269 0.000000 -0.000000 0.000000 -10.305335 -0.338210 -63.013285 -3.494457 -16.192261 68.226113 6.876529 -8.566216 -14.384439 0.000000 -0.000000 0.000000 5.321890 -15.701953 18.556888 1.592930 2.100995 -8.121904 1.520901 -2.310088 1.785477 -4.457178 3.481276 -19.374166 0.532000 8.401364 -8.240604 -21.369235 5.187082 -5.281616 -60.752171 -18.374981 21.258112 178.917900 -57.078376 -158.248877 20.396051 -14.905826 -34.166843 15.569996 -12.228816 5.257593 49.207571 -19.608837 13.804499 109.300964 87.402911 124.187678 -14.303114 18.869320 -13.905277 
-1.906199 -0.322216 0.923498 98.184692 5.676535 102.901497 -1.160084 0.997473 16.536347 -4.155539 -21.610393 15.941077 -6.095530 9.364367 10.071075 0.000000 -0.000000 0.000000 -11.115560 1.188704 -62.673198 -2.303548 -15.904925 51.488712 9.107498 -7.273066 -4.660224 0.000000 -0.000000 0.000000 5.996602 -16.563794 16.785631 1.758395 2.822038 -6.413392 1.953018 -1.763953 0.585267 -5.220061 3.006902 -18.259522 0.782807 9.349376 -9.352143 -21.174389 6.379498 -4.923785 -58.696389 -17.258059 20.367079 -176.027630 -54.408937 -158.852871 18.622936 -15.864117 -24.846403 14.817739 -11.783836 6.843674 49.931755 -18.810810 11.581929 162.633734 88.190314 177.625718 -13.113654 18.515118 -13.669776 
-1.776527 -0.315912 0.929728 97.210710 5.342768 101.973662 -4.643157 -1.988643 14.923349 -5.359210 -16.533990 29.605431 -0.922118 15.325450 8.214257 0.000000 -0.000000 0.000000 -10.996636 2.537255 -59.071935 -0.661129 -14.013404 40.858668 12.226294 -7.595152 -1.279540 0.000000 -0.000000 0.000000 5.641765 -14.709100 16.484878 1.959802 2.479358 -6.412638 1.853439 -1.246809 1.284687 -5.168054 1.572916 -17.821243 1.039187 9.471553 -9.744608 -20.265147 6.592465 -4.030658 -58.021689 -14.324957 21.921705 -173.212859 -58.881529 -164.201889 18.425489 -13.613641 -26.976094 16.033566 -11.007071 5.151341 50.040375 -16.436166 12.748978 -89.273277 87.058379 -74.852608 -13.036244 18.097397 -10.954433 
-1.615588 -0.310694 0.923431 95.635927 5.425848 99.636565 -6.876534 -4.128716 7.736477 -7.800314 -8.870700 52.890565 2.493291 14.747857 2.974229 0.000000 -0.000000 0.000000 -7.350410 3.595471 -53.032907 -0.118800 -12.731567 43.957062 11.839573 -5.869161 0.341218 0.000000 -0.000000 0.000000 5.260779 -10.365306 17.633492 2.612855 2.472204 -5.645751 1.154867 -1.184824 1.008956 -4.370288 1.331464 -17.239235 -0.258361 7.344034 -9.273538 -22.218263 6.306082 -2.882416 -55.733971 -9.692401 21.261040 -166.964581 -70.071008 -174.252950 14.998709 -14.136799 -28.851708 20.040926 -8.585602 2.348092 48.446111 -11.610081 14.048888 -59.143357 82.157665 -46.021355 -12.248625 17.264953 -9.318552 
-1.489691 -0.309584 0.908102 93.654456 6.889178 97.703257 -4.352710 -3.420650 -1.291101 -7.938633 -1.931048 69.808448 3.759750 13.543430 -4.162853 0.000000 -0.000000 0.000000 -2.368682 6.467949 -45.884413 0.703047 -10.025694 49.953343 0.631935 -8.479403 -12.635647 0.000000 -0.000000 0.000000 5.430946 -7.126413 19.459289 2.905674 3.606746 -6.066361 0.911594 -0.662824 1.321232 -3.045397 1.078068 -18.833184 -1.229740 4.972069 -6.053282 -25.103643 6.027737 -3.431325 -53.296267 -4.726937 18.556685 -144.823070 -80.842962 165.184529 13.477837 -13.833267 -18.552781 24.286876 -4.925144 0.327673 45.689977 -7.635073 13.671811 -52.051877 79.798458 -38.552075 -13.835074 16.633514 -9.974623 
-1.369747 -0.307490 0.894333 91.218344 7.851426 96.880162 -0.195686 -3.757687 -13.806108 -5.989407 5.911429 82.025770 4.804334 13.019995 -11.042275 0.000000 -0.000000 0.000000 2.191589 9.255729 -38.017074 0.624666 -5.935551 53.273776 -3.344385 -13.341326 -23.268626 0.000000 -0.000000 0.000000 4.534682 -3.283186 20.254926 3.618986 4.522586 -4.884471 0.884646 0.494247 0.303061 -1.581378 0.469814 -20.796188 -2.121211 2.844584 -3.627940 -26.872016 5.890368 -3.215285 -52.305045 -0.460185 16.451409 -44.905789 -84.916285 62.808742 15.296416 -11.720920 -19.642614 27.070528 -0.947720 -0.711379 44.229701 -2.181499 14.665695 -60.368476 76.778333 -45.160800 -14.708745 16.575159 -10.125477 
-1.248664 -0.299470 0.893725 91.189305 7.310230 96.680616 3.168766 -5.130929 -27.411936 -3.830105 10.910986 85.844199 4.248130 11.811646 -16.359520 0.000000 -0.000000 0.000000 3.680593 8.941540 -27.555463 0.244294 -4.176090 51.601572 -3.303635 -14.735264 -29.544092 0.000000 -0.000000 0.000000 3.703723 -0.266787 21.225667 3.707050 3.307523 -4.514573 0.744577 1.376788 -1.166215 -0.091944 0.264861 -21.844632 -2.442389 1.139392 -3.170372 -27.124040 7.084216 -1.934137 -50.391043 4.953511 13.202535 -42.466816 -82.391719 63.032317 14.474515 -13.090423 -17.746904 26.207709 1.998200 0.005181 46.709787 4.617379 13.664791 -77.181737 76.412750 -59.745987 -16.944830 16.460512 -13.368498 
-1.121248 -0.284637 0.902798 91.567503 4.743261 96.498080 4.186957 -6.633385 -38.309454 -2.486954 14.292265 79.247930 3.200026 10.682401 -20.383350 0.000000 -0.000000 0.000000 2.911752 2.715538 -14.815315 -0.625968 1.729518 45.296370 -1.262258 -10.741520 -30.492221 0.000000 -0.000000 0.000000 2.831624 4.688293 21.632287 2.797084 0.940390 -5.340928 0.423066 2.210007 -1.397487 0.413985 -1.359733 -21.328745 -1.225720 -1.570977 -3.859575 -24.191874 7.504835 -0.867795 -48.251044 10.507537 12.721512 -86.708919 -78.724533 107.821073 13.961413 -12.828627 -21.548687 22.616030 3.240366 -1.391098 52.724743 7.557907 13.099343 -107.319436 74.970346 -90.537934 -17.344516 16.420142 -16.216192 
